<svg xmlns="http://www.w3.org/2000/svg" xml:space="preserve" width="50" height="50" viewBox="0 0 512 512" id="Phone">
  <linearGradient id="a" x1="140.593" x2="320.027" y1="371.407" y2="191.973" gradientUnits="userSpaceOnUse">
    <stop offset="0" stop-color="#fc8d0e" class="stopColorfcc60e svgShape"></stop>
    <stop offset="1" stop-color="#cc8029" class="stopColore92e29 svgShape"></stop>
  </linearGradient>
  <path fill="url(#a)" d="M510.134 387.504c-3.478-10.438-11.422-18.656-21.796-22.548L379.78 324.225c-11.071-4.155-22.638-2.904-32.571 3.525l-36.56 23.679c-6.86 4.442-15.079 4.486-21.985.12-25.638-16.214-49.584-35.401-71.173-57.03l-.01-.01c-21.629-21.589-40.816-45.536-57.03-71.173-4.368-6.907-4.323-15.126.119-21.985l23.68-36.562c6.428-9.93 7.679-21.497 3.524-32.568l-40.73-108.559c-3.892-10.374-12.111-18.318-22.548-21.796-10.438-3.479-21.78-2.052-31.118 3.915L36.553 42.086C7.793 60.461-5.672 93.782 2.25 126.975c21.979 92.107 69.831 176.639 138.319 244.396 67.817 68.549 152.349 116.4 244.457 138.379a81.213 81.213 0 0 0 18.865 2.241c26.471 0 51.146-13.259 66.023-36.544l36.306-56.825c5.966-9.338 7.393-20.68 3.914-31.118zm-17.397 22.504-36.307 56.825c-14.653 22.934-41.224 33.67-67.692 27.355-89.199-21.286-171.082-67.646-236.857-134.13C85.458 294.343 39.098 212.46 17.812 123.261c-6.316-26.468 4.421-53.039 27.356-67.692l56.824-36.306c3.371-2.154 7.198-3.258 11.051-3.258 2.148 0 4.306.343 6.395 1.04 5.836 1.945 10.438 6.405 12.626 12.238l40.732 108.559c2.362 6.294 1.679 12.606-1.975 18.25l-23.679 36.561c-7.809 12.058-7.891 27.092-.212 39.234 16.846 26.638 36.778 51.515 59.244 73.94 22.426 22.466 47.302 42.398 73.941 59.245 12.142 7.678 27.175 7.596 39.234-.213l36.558-23.678c5.646-3.655 11.958-4.339 18.253-1.976l108.559 40.731c5.832 2.188 10.292 6.79 12.237 12.626 1.944 5.837 1.136 12.195-2.219 17.446z"></path>
</svg>
